<?xml version="1.0" encoding="UTF-8" standalone="no"?>
<!DOCTYPE svg PUBLIC "-//W3C//DTD SVG 1.1//EN" "http://www.w3.org/Graphics/SVG/1.1/DTD/svg11.dtd">
<svg xmlns="http://www.w3.org/2000/svg" version="1.1" viewBox="0.00 0.00 500.00 500.00">
<g stroke-width="2.00" fill="none" stroke-linecap="butt">
<path stroke="#127c49" vector-effect="non-scaling-stroke" d="
  M 338.22 169.01
  L 338.87 171.00"
/>
<path stroke="#0d8d4b" vector-effect="non-scaling-stroke" d="
  M 338.87 171.00
  L 336.88 169.50
  Q 336.46 169.18 335.94 169.15
  Q 331.59 168.89 328.99 169.48
  Q 323.10 170.82 317.87 175.89
  C 304.44 188.92 291.63 202.44 278.18 215.65
  Q 278.10 215.73 276.05 217.25
  Q 274.51 218.38 274.59 220.31"
/>
<path stroke="#87c3a5" vector-effect="non-scaling-stroke" d="
  M 274.59 220.31
  C 268.04 211.98 260.22 209.64 249.44 209.91
  Q 238.78 210.18 228.51 209.90
  C 224.09 209.78 219.90 211.77 218.02 215.78
  Q 216.98 217.99 216.99 224.43
  Q 217.02 252.26 216.95 279.42"
/>
<path stroke="#0d8d4b" vector-effect="non-scaling-stroke" d="
  M 216.95 279.42
  Q 211.66 282.48 207.33 286.82
  Q 190.48 303.73 173.79 321.00
  Q 169.98 324.94 167.82 331.04
  Q 167.08 333.10 167.49 335.47
  Q 167.93 337.98 168.32 340.36"
/>
<path stroke="#127c49" vector-effect="non-scaling-stroke" d="
  M 168.32 340.36
  Q 167.63 340.30 166.80 339.84"
/>
<path stroke="#10824a" vector-effect="non-scaling-stroke" d="
  M 338.87 171.00
  Q 339.33 171.49 339.82 172.18
  Q 348.40 184.44 348.31 198.93
  Q 347.98 249.63 348.33 300.69
  C 348.34 302.98 347.92 305.45 347.75 307.78
  Q 347.56 310.42 346.82 313.23
  C 341.08 335.17 322.07 350.17 299.50 350.20
  Q 249.96 350.26 195.50 350.22
  Q 180.99 350.21 168.32 340.36"
/>
<path stroke="#85c9a6" vector-effect="non-scaling-stroke" d="
  M 216.95 279.42
  Q 217.39 290.48 228.00 290.57
  Q 242.58 290.69 257.25 290.71
  Q 265.61 290.73 271.73 286.31
  C 284.04 277.43 286.50 260.79 276.48 248.64
  Q 276.12 248.21 276.33 247.69
  C 277.28 245.38 278.38 243.22 278.86 240.71
  Q 281.02 229.53 274.59 220.31"
/>
<path stroke="#85c9a6" vector-effect="non-scaling-stroke" d="
  M 264.03 244.40
  C 265.43 241.20 268.99 242.95 270.98 244.11
  A 0.79 0.79 0.0 0 0 272.10 243.74
  C 275.57 235.65 273.86 226.43 267.37 220.58
  C 262.48 216.18 256.95 215.17 250.50 215.26
  Q 239.18 215.42 228.11 215.37
  Q 222.42 215.34 222.40 221.51
  Q 222.34 245.06 222.39 278.47
  C 222.40 282.29 223.40 285.37 227.68 285.37
  Q 241.93 285.37 255.64 285.40
  Q 267.81 285.43 273.94 276.30
  C 279.57 267.91 277.83 256.83 270.13 250.10
  C 268.60 248.76 266.69 248.31 264.99 247.33
  A 2.32 2.31 -63.3 0 1 264.03 244.40"
/>
<path stroke="#85c9a6" vector-effect="non-scaling-stroke" d="
  M 231.67 239.80
  L 227.81 240.00
  Q 226.07 240.09 225.92 241.82
  L 225.86 242.46
  A 2.69 2.69 0.0 0 0 228.54 245.38
  Q 240.24 245.38 253.55 245.38
  C 267.10 245.38 267.51 225.71 253.58 225.48
  Q 244.62 225.34 234.92 225.48
  A 2.61 2.60 -0.4 0 0 232.35 228.08
  L 232.35 239.08
  A 0.72 0.72 0.0 0 1 231.67 239.80"
/>
<path stroke="#85c9a6" vector-effect="non-scaling-stroke" d="
  M 232.46 261.64
  Q 232.42 265.98 232.31 270.43
  Q 232.26 272.12 232.63 273.51
  A 2.40 2.39 -6.8 0 0 234.91 275.29
  Q 244.33 275.42 255.67 275.38
  Q 263.96 275.35 266.41 269.27
  C 269.29 262.10 264.22 255.37 256.74 255.37
  Q 242.84 255.36 228.44 255.42
  Q 225.66 255.43 225.87 258.20
  L 225.91 258.74
  Q 226.07 260.89 228.23 260.90
  L 231.74 260.91
  Q 232.46 260.92 232.46 261.64"
/>
<path stroke="#87c3a5" vector-effect="non-scaling-stroke" d="
  M 237.83 231.39
  L 237.87 239.45
  A 0.49 0.49 0.0 0 0 238.36 239.94
  L 253.26 239.86
  A 5.15 4.46 -0.3 0 0 258.39 235.38
  L 258.39 235.26
  A 5.15 4.46 -0.3 0 0 253.22 230.82
  L 238.32 230.90
  A 0.49 0.49 0.0 0 0 237.83 231.39"
/>
<path stroke="#85c9a6" vector-effect="non-scaling-stroke" d="
  M 237.85 261.28
  L 237.87 269.50
  A 0.44 0.44 0.0 0 0 238.31 269.94
  L 256.61 269.91
  A 5.12 4.46 -0.1 0 0 261.72 265.44
  L 261.72 265.26
  A 5.12 4.46 -0.1 0 0 256.59 260.81
  L 238.29 260.84
  A 0.44 0.44 0.0 0 0 237.85 261.28"
/>
</g>
<path fill="#0f874a" d="
  M 338.22 169.01
  L 338.87 171.00
  L 336.88 169.50
  Q 336.46 169.18 335.94 169.15
  Q 331.59 168.89 328.99 169.48
  Q 323.10 170.82 317.87 175.89
  C 304.44 188.92 291.63 202.44 278.18 215.65
  Q 278.10 215.73 276.05 217.25
  Q 274.51 218.38 274.59 220.31
  C 268.04 211.98 260.22 209.64 249.44 209.91
  Q 238.78 210.18 228.51 209.90
  C 224.09 209.78 219.90 211.77 218.02 215.78
  Q 216.98 217.99 216.99 224.43
  Q 217.02 252.26 216.95 279.42
  Q 211.66 282.48 207.33 286.82
  Q 190.48 303.73 173.79 321.00
  Q 169.98 324.94 167.82 331.04
  Q 167.08 333.10 167.49 335.47
  Q 167.93 337.98 168.32 340.36
  Q 167.63 340.30 166.80 339.84
  Q 164.71 337.52 162.27 335.00
  Q 152.73 325.15 149.94 312.42
  Q 148.70 306.79 148.73 294.23
  Q 148.84 251.11 148.92 198.40
  C 148.92 195.08 149.15 190.88 150.04 187.67
  C 156.04 165.96 174.78 150.68 197.32 150.73
  Q 244.12 150.84 292.54 150.65
  Q 305.04 150.60 311.39 152.15
  Q 326.17 155.75 336.53 167.99
  Q 336.90 168.42 338.22 169.01
  Z"
/>
<path fill="#0b924c" d="
  M 338.87 171.00
  Q 339.33 171.49 339.82 172.18
  Q 348.40 184.44 348.31 198.93
  Q 347.98 249.63 348.33 300.69
  C 348.34 302.98 347.92 305.45 347.75 307.78
  Q 347.56 310.42 346.82 313.23
  C 341.08 335.17 322.07 350.17 299.50 350.20
  Q 249.96 350.26 195.50 350.22
  Q 180.99 350.21 168.32 340.36
  Q 167.93 337.98 167.49 335.47
  Q 167.08 333.10 167.82 331.04
  Q 169.98 324.94 173.79 321.00
  Q 190.48 303.73 207.33 286.82
  Q 211.66 282.48 216.95 279.42
  Q 217.39 290.48 228.00 290.57
  Q 242.58 290.69 257.25 290.71
  Q 265.61 290.73 271.73 286.31
  C 284.04 277.43 286.50 260.79 276.48 248.64
  Q 276.12 248.21 276.33 247.69
  C 277.28 245.38 278.38 243.22 278.86 240.71
  Q 281.02 229.53 274.59 220.31
  Q 274.51 218.38 276.05 217.25
  Q 278.10 215.73 278.18 215.65
  C 291.63 202.44 304.44 188.92 317.87 175.89
  Q 323.10 170.82 328.99 169.48
  Q 331.59 168.89 335.94 169.15
  Q 336.46 169.18 336.88 169.50
  L 338.87 171.00
  Z"
/>
<path fill="#147148" d="
  M 338.22 169.01
  Q 354.98 171.95 359.63 186.40
  Q 361.05 190.82 361.04 196.15
  Q 360.96 265.62 361.08 335.39
  Q 361.09 342.04 359.67 346.58
  C 356.23 357.62 346.30 364.02 334.67 363.98
  Q 266.54 363.75 199.22 364.03
  Q 188.75 364.07 183.66 362.44
  Q 169.13 357.77 166.80 339.84
  Q 167.63 340.30 168.32 340.36
  Q 180.99 350.21 195.50 350.22
  Q 249.96 350.26 299.50 350.20
  C 322.07 350.17 341.08 335.17 346.82 313.23
  Q 347.56 310.42 347.75 307.78
  C 347.92 305.45 348.34 302.98 348.33 300.69
  Q 347.98 249.63 348.31 198.93
  Q 348.40 184.44 339.82 172.18
  Q 339.33 171.49 338.87 171.00
  L 338.22 169.01
  Z"
/>
<path fill="#feffff" d="
  M 274.59 220.31
  Q 281.02 229.53 278.86 240.71
  C 278.38 243.22 277.28 245.38 276.33 247.69
  Q 276.12 248.21 276.48 248.64
  C 286.50 260.79 284.04 277.43 271.73 286.31
  Q 265.61 290.73 257.25 290.71
  Q 242.58 290.69 228.00 290.57
  Q 217.39 290.48 216.95 279.42
  Q 217.02 252.26 216.99 224.43
  Q 216.98 217.99 218.02 215.78
  C 219.90 211.77 224.09 209.78 228.51 209.90
  Q 238.78 210.18 249.44 209.91
  C 260.22 209.64 268.04 211.98 274.59 220.31
  Z
  M 264.03 244.40
  C 265.43 241.20 268.99 242.95 270.98 244.11
  A 0.79 0.79 0.0 0 0 272.10 243.74
  C 275.57 235.65 273.86 226.43 267.37 220.58
  C 262.48 216.18 256.95 215.17 250.50 215.26
  Q 239.18 215.42 228.11 215.37
  Q 222.42 215.34 222.40 221.51
  Q 222.34 245.06 222.39 278.47
  C 222.40 282.29 223.40 285.37 227.68 285.37
  Q 241.93 285.37 255.64 285.40
  Q 267.81 285.43 273.94 276.30
  C 279.57 267.91 277.83 256.83 270.13 250.10
  C 268.60 248.76 266.69 248.31 264.99 247.33
  A 2.32 2.31 -63.3 0 1 264.03 244.40
  Z"
/>
<path fill="#0b924c" d="
  M 270.98 244.11
  C 268.99 242.95 265.43 241.20 264.03 244.40
  A 2.32 2.31 -63.3 0 0 264.99 247.33
  C 266.69 248.31 268.60 248.76 270.13 250.10
  C 277.83 256.83 279.57 267.91 273.94 276.30
  Q 267.81 285.43 255.64 285.40
  Q 241.93 285.37 227.68 285.37
  C 223.40 285.37 222.40 282.29 222.39 278.47
  Q 222.34 245.06 222.40 221.51
  Q 222.42 215.34 228.11 215.37
  Q 239.18 215.42 250.50 215.26
  C 256.95 215.17 262.48 216.18 267.37 220.58
  C 273.86 226.43 275.57 235.65 272.10 243.74
  A 0.79 0.79 0.0 0 1 270.98 244.11
  Z
  M 231.67 239.80
  L 227.81 240.00
  Q 226.07 240.09 225.92 241.82
  L 225.86 242.46
  A 2.69 2.69 0.0 0 0 228.54 245.38
  Q 240.24 245.38 253.55 245.38
  C 267.10 245.38 267.51 225.71 253.58 225.48
  Q 244.62 225.34 234.92 225.48
  A 2.61 2.60 -0.4 0 0 232.35 228.08
  L 232.35 239.08
  A 0.72 0.72 0.0 0 1 231.67 239.80
  Z
  M 232.46 261.64
  Q 232.42 265.98 232.31 270.43
  Q 232.26 272.12 232.63 273.51
  A 2.40 2.39 -6.8 0 0 234.91 275.29
  Q 244.33 275.42 255.67 275.38
  Q 263.96 275.35 266.41 269.27
  C 269.29 262.10 264.22 255.37 256.74 255.37
  Q 242.84 255.36 228.44 255.42
  Q 225.66 255.43 225.87 258.20
  L 225.91 258.74
  Q 226.07 260.89 228.23 260.90
  L 231.74 260.91
  Q 232.46 260.92 232.46 261.64
  Z"
/>
<path fill="#feffff" d="
  M 232.35 239.08
  L 232.35 228.08
  A 2.61 2.60 -0.4 0 1 234.92 225.48
  Q 244.62 225.34 253.58 225.48
  C 267.51 225.71 267.10 245.38 253.55 245.38
  Q 240.24 245.38 228.54 245.38
  A 2.69 2.69 0.0 0 1 225.86 242.46
  L 225.92 241.82
  Q 226.07 240.09 227.81 240.00
  L 231.67 239.80
  A 0.72 0.72 0.0 0 0 232.35 239.08
  Z
  M 237.83 231.39
  L 237.87 239.45
  A 0.49 0.49 0.0 0 0 238.36 239.94
  L 253.26 239.86
  A 5.15 4.46 -0.3 0 0 258.39 235.38
  L 258.39 235.26
  A 5.15 4.46 -0.3 0 0 253.22 230.82
  L 238.32 230.90
  A 0.49 0.49 0.0 0 0 237.83 231.39
  Z"
/>
<path fill="#0f874a" d="
  M 237.83 231.39
  A 0.49 0.49 0.0 0 1 238.32 230.90
  L 253.22 230.82
  A 5.15 4.46 -0.3 0 1 258.39 235.26
  L 258.39 235.38
  A 5.15 4.46 -0.3 0 1 253.26 239.86
  L 238.36 239.94
  A 0.49 0.49 0.0 0 1 237.87 239.45
  L 237.83 231.39
  Z"
/>
<path fill="#feffff" d="
  M 231.74 260.91
  L 228.23 260.90
  Q 226.07 260.89 225.91 258.74
  L 225.87 258.20
  Q 225.66 255.43 228.44 255.42
  Q 242.84 255.36 256.74 255.37
  C 264.22 255.37 269.29 262.10 266.41 269.27
  Q 263.96 275.35 255.67 275.38
  Q 244.33 275.42 234.91 275.29
  A 2.40 2.39 -6.8 0 1 232.63 273.51
  Q 232.26 272.12 232.31 270.43
  Q 232.42 265.98 232.46 261.64
  Q 232.46 260.92 231.74 260.91
  Z
  M 237.85 261.28
  L 237.87 269.50
  A 0.44 0.44 0.0 0 0 238.31 269.94
  L 256.61 269.91
  A 5.12 4.46 -0.1 0 0 261.72 265.44
  L 261.72 265.26
  A 5.12 4.46 -0.1 0 0 256.59 260.81
  L 238.29 260.84
  A 0.44 0.44 0.0 0 0 237.85 261.28
  Z"
/>
<path fill="#0b924c" d="
  M 237.85 261.28
  A 0.44 0.44 0.0 0 1 238.29 260.84
  L 256.59 260.81
  A 5.12 4.46 -0.1 0 1 261.72 265.26
  L 261.72 265.44
  A 5.12 4.46 -0.1 0 1 256.61 269.91
  L 238.31 269.94
  A 0.44 0.44 0.0 0 1 237.87 269.50
  L 237.85 261.28
  Z"
/>
</svg>
