<svg xmlns="http://www.w3.org/2000/svg" xmlns:xlink="http://www.w3.org/1999/xlink" width="500" zoomAndPan="magnify" viewBox="0 0 375 374.999991" height="500" preserveAspectRatio="xMidYMid meet" version="1.0"><defs><clipPath id="98ec98360f"><path d="M 182.695312 57.15625 L 362.566406 57.15625 L 362.566406 317.84375 L 182.695312 317.84375 Z M 182.695312 57.15625 " clip-rule="nonzero"/></clipPath><clipPath id="97eaf8af89"><path d="M 12.109375 67 L 229 67 L 229 310 L 12.109375 310 Z M 12.109375 67 " clip-rule="nonzero"/></clipPath></defs><g clip-path="url(#98ec98360f)"><path fill="#ffffff" d="M 362.734375 238.796875 C 362.734375 277.292969 335.070312 317.878906 281.375 317.878906 L 182.878906 317.878906 C 182.878906 317.878906 215.734375 292.4375 235.117188 250.355469 L 235.117188 266.777344 L 276.519531 266.777344 C 293.5 266.777344 311.613281 255.125 311.613281 235.082031 C 311.613281 220.039062 301.261719 204.996094 276.359375 204.996094 L 248.078125 204.996094 C 249.730469 190.675781 249.207031 175.304688 245.566406 159.070312 L 256.292969 159.070312 C 268.75 159.070312 280.886719 148.386719 280.886719 133.1875 C 280.886719 118.472656 269.402344 108.117188 257.273438 108.117188 L 235.117188 108.117188 L 235.117188 128.304688 C 224.828125 105.738281 208.144531 81.890625 182.878906 57.15625 L 254.035156 57.15625 C 300.289062 57.15625 329.730469 91.125 329.730469 126.222656 C 329.730469 153.878906 311.445312 171.019531 305.144531 171.019531 C 330.222656 171.019531 362.734375 196.902344 362.734375 238.796875 Z M 362.734375 238.796875 " fill-opacity="1" fill-rule="nonzero"/></g><g clip-path="url(#97eaf8af89)"><path fill="#1ed891" d="M 103.628906 67.230469 L 43.925781 67.230469 C 42.882812 67.234375 41.84375 67.285156 40.808594 67.386719 C 39.769531 67.492188 38.742188 67.644531 37.71875 67.847656 C 36.699219 68.054688 35.6875 68.304688 34.691406 68.609375 C 33.695312 68.914062 32.714844 69.265625 31.753906 69.664062 C 30.792969 70.0625 29.851562 70.507812 28.933594 71 C 28.015625 71.488281 27.121094 72.023438 26.257812 72.605469 C 25.390625 73.183594 24.554688 73.804688 23.75 74.464844 C 22.945312 75.125 22.171875 75.824219 21.4375 76.5625 C 20.699219 77.296875 20 78.066406 19.339844 78.875 C 18.679688 79.679688 18.058594 80.515625 17.480469 81.378906 C 16.902344 82.246094 16.367188 83.136719 15.875 84.058594 C 15.382812 84.976562 14.9375 85.914062 14.539062 86.878906 C 14.140625 87.839844 13.789062 88.820312 13.484375 89.816406 C 13.183594 90.8125 12.929688 91.820312 12.726562 92.84375 C 12.519531 93.863281 12.367188 94.894531 12.265625 95.929688 C 12.160156 96.96875 12.109375 98.007812 12.109375 99.046875 L 12.109375 277.21875 C 12.109375 278.257812 12.160156 279.296875 12.265625 280.335938 C 12.367188 281.371094 12.519531 282.398438 12.726562 283.421875 C 12.929688 284.441406 13.183594 285.453125 13.484375 286.449219 C 13.789062 287.445312 14.140625 288.425781 14.539062 289.386719 C 14.9375 290.347656 15.382812 291.289062 15.875 292.207031 C 16.367188 293.125 16.902344 294.019531 17.480469 294.886719 C 18.058594 295.75 18.679688 296.585938 19.339844 297.390625 C 20 298.195312 20.699219 298.96875 21.4375 299.703125 C 22.171875 300.441406 22.945312 301.140625 23.75 301.800781 C 24.554688 302.460938 25.390625 303.082031 26.257812 303.660156 C 27.121094 304.238281 28.015625 304.773438 28.933594 305.265625 C 29.851562 305.757812 30.792969 306.203125 31.753906 306.601562 C 32.714844 307 33.695312 307.351562 34.691406 307.65625 C 35.6875 307.957031 36.699219 308.210938 37.71875 308.414062 C 38.742188 308.621094 39.769531 308.773438 40.808594 308.875 C 41.84375 308.980469 42.882812 309.03125 43.925781 309.03125 L 107.554688 309.03125 C 111.679688 309.027344 115.792969 308.808594 119.890625 308.382812 C 123.992188 307.957031 128.0625 307.324219 132.097656 306.484375 C 136.136719 305.644531 140.117188 304.597656 144.046875 303.351562 C 147.980469 302.105469 151.835938 300.664062 155.617188 299.023438 C 159.402344 297.382812 163.089844 295.554688 166.6875 293.539062 C 170.285156 291.523438 173.769531 289.332031 177.144531 286.960938 C 180.515625 284.589844 183.761719 282.050781 186.875 279.351562 C 189.988281 276.648438 192.960938 273.796875 195.78125 270.792969 C 198.621094 267.785156 201.292969 264.640625 203.804688 261.359375 C 206.316406 258.078125 208.652344 254.671875 210.8125 251.148438 C 212.972656 247.625 214.945312 244 216.730469 240.269531 C 218.515625 236.542969 220.101562 232.734375 221.492188 228.839844 C 222.882812 224.949219 224.070312 220.996094 225.054688 216.980469 C 226.035156 212.964844 226.808594 208.910156 227.371094 204.816406 C 227.933594 200.722656 228.285156 196.609375 228.421875 192.480469 C 228.558594 188.347656 228.484375 184.222656 228.195312 180.097656 C 228.035156 178.175781 227.828125 176.261719 227.574219 174.351562 C 227.324219 172.441406 227.027344 170.535156 226.6875 168.640625 C 226.347656 166.742188 225.960938 164.855469 225.53125 162.976562 C 225.101562 161.097656 224.628906 159.230469 224.113281 157.371094 C 223.59375 155.515625 223.035156 153.671875 222.433594 151.839844 C 221.828125 150.011719 221.183594 148.195312 220.492188 146.394531 C 219.804688 144.597656 219.074219 142.8125 218.300781 141.046875 C 217.53125 139.28125 216.714844 137.535156 215.863281 135.808594 C 215.007812 134.078125 214.113281 132.375 213.179688 130.6875 C 212.242188 129.003906 211.269531 127.339844 210.257812 125.699219 C 209.246094 124.058594 208.195312 122.445312 207.105469 120.855469 C 206.019531 119.261719 204.894531 117.699219 203.730469 116.160156 C 202.570312 114.621094 201.371094 113.113281 200.140625 111.632812 C 198.90625 110.148438 197.640625 108.699219 196.339844 107.277344 C 195.039062 105.855469 193.707031 104.460938 192.339844 103.101562 C 190.972656 101.742188 189.578125 100.417969 188.148438 99.121094 C 186.722656 97.828125 185.261719 96.570312 183.777344 95.34375 C 182.289062 94.117188 180.773438 92.925781 179.230469 91.773438 C 177.6875 90.617188 176.117188 89.5 174.523438 88.417969 C 172.925781 87.339844 171.304688 86.296875 169.660156 85.289062 C 168.015625 84.285156 166.347656 83.320312 164.660156 82.394531 C 162.96875 81.46875 161.257812 80.582031 159.527344 79.734375 C 157.796875 78.886719 156.046875 78.082031 154.277344 77.316406 C 152.507812 76.554688 150.71875 75.832031 148.917969 75.152344 C 147.113281 74.472656 145.296875 73.832031 143.460938 73.238281 C 141.628906 72.644531 139.785156 72.089844 137.925781 71.582031 C 136.066406 71.074219 134.195312 70.609375 132.316406 70.191406 C 130.433594 69.769531 128.542969 69.390625 126.644531 69.0625 C 124.746094 68.730469 122.84375 68.441406 120.929688 68.199219 C 119.019531 67.957031 117.101562 67.757812 115.179688 67.605469 C 113.257812 67.453125 111.335938 67.347656 109.410156 67.285156 C 107.484375 67.222656 105.554688 67.203125 103.628906 67.230469 Z M 186.5 262.09375 C 183.984375 264.796875 181.339844 267.363281 178.5625 269.796875 C 175.78125 272.226562 172.886719 274.507812 169.871094 276.640625 C 166.855469 278.773438 163.738281 280.742188 160.519531 282.550781 C 157.304688 284.363281 154 286 150.613281 287.46875 C 147.222656 288.9375 143.769531 290.226562 140.25 291.339844 C 136.726562 292.449219 133.160156 293.375 129.542969 294.117188 C 125.925781 294.863281 122.28125 295.414062 118.605469 295.78125 C 114.929688 296.144531 111.25 296.320312 107.554688 296.304688 L 43.925781 296.304688 C 43.300781 296.304688 42.675781 296.273438 42.054688 296.210938 C 41.433594 296.152344 40.8125 296.058594 40.203125 295.9375 C 39.589844 295.8125 38.984375 295.660156 38.386719 295.480469 C 37.789062 295.296875 37.199219 295.085938 36.621094 294.847656 C 36.046875 294.609375 35.480469 294.339844 34.929688 294.046875 C 34.378906 293.75 33.84375 293.429688 33.324219 293.082031 C 32.804688 292.734375 32.300781 292.363281 31.820312 291.96875 C 31.335938 291.570312 30.875 291.152344 30.433594 290.710938 C 29.988281 290.265625 29.570312 289.804688 29.175781 289.320312 C 28.777344 288.839844 28.40625 288.335938 28.058594 287.816406 C 27.710938 287.296875 27.390625 286.761719 27.09375 286.210938 C 26.800781 285.660156 26.53125 285.097656 26.292969 284.519531 C 26.054688 283.941406 25.84375 283.355469 25.660156 282.757812 C 25.480469 282.15625 25.328125 281.550781 25.203125 280.941406 C 25.082031 280.328125 24.992188 279.710938 24.929688 279.085938 C 24.867188 278.464844 24.835938 277.84375 24.835938 277.21875 L 24.835938 99.046875 C 24.835938 98.421875 24.867188 97.800781 24.929688 97.175781 C 24.992188 96.554688 25.082031 95.9375 25.203125 95.324219 C 25.328125 94.710938 25.480469 94.105469 25.660156 93.507812 C 25.84375 92.910156 26.054688 92.324219 26.292969 91.746094 C 26.53125 91.167969 26.800781 90.605469 27.09375 90.054688 C 27.390625 89.503906 27.710938 88.96875 28.058594 88.449219 C 28.40625 87.929688 28.777344 87.425781 29.175781 86.941406 C 29.570312 86.460938 29.988281 85.996094 30.433594 85.554688 C 30.875 85.113281 31.335938 84.695312 31.820312 84.296875 C 32.300781 83.902344 32.804688 83.53125 33.324219 83.183594 C 33.84375 82.835938 34.378906 82.511719 34.929688 82.21875 C 35.480469 81.925781 36.046875 81.65625 36.621094 81.417969 C 37.199219 81.175781 37.789062 80.96875 38.386719 80.785156 C 38.984375 80.601562 39.589844 80.449219 40.203125 80.328125 C 40.8125 80.207031 41.433594 80.113281 42.054688 80.050781 C 42.675781 79.992188 43.300781 79.960938 43.925781 79.957031 L 103.628906 79.957031 C 105.355469 79.929688 107.082031 79.941406 108.808594 79.996094 C 110.539062 80.046875 112.261719 80.140625 113.984375 80.273438 C 115.707031 80.40625 117.425781 80.582031 119.140625 80.796875 C 120.855469 81.007812 122.5625 81.265625 124.265625 81.558594 C 125.96875 81.851562 127.660156 82.1875 129.347656 82.5625 C 131.035156 82.933594 132.710938 83.347656 134.378906 83.800781 C 136.046875 84.253906 137.703125 84.746094 139.347656 85.273438 C 140.992188 85.804688 142.621094 86.375 144.242188 86.980469 C 145.859375 87.585938 147.460938 88.230469 149.046875 88.914062 C 150.636719 89.59375 152.207031 90.3125 153.757812 91.070312 C 155.3125 91.824219 156.847656 92.617188 158.363281 93.445312 C 159.882812 94.273438 161.378906 95.136719 162.851562 96.035156 C 164.328125 96.929688 165.785156 97.863281 167.214844 98.828125 C 168.648438 99.796875 170.058594 100.796875 171.441406 101.828125 C 172.828125 102.859375 174.1875 103.921875 175.523438 105.019531 C 176.859375 106.117188 178.167969 107.242188 179.449219 108.398438 C 180.734375 109.558594 181.988281 110.746094 183.214844 111.960938 C 184.441406 113.175781 185.640625 114.421875 186.808594 115.695312 C 187.976562 116.96875 189.113281 118.265625 190.222656 119.59375 C 191.328125 120.917969 192.40625 122.269531 193.449219 123.648438 C 194.492188 125.023438 195.503906 126.421875 196.484375 127.847656 C 197.460938 129.269531 198.40625 130.71875 199.316406 132.1875 C 200.226562 133.652344 201.101562 135.144531 201.941406 136.652344 C 202.785156 138.160156 203.589844 139.691406 204.359375 141.238281 C 205.125 142.785156 205.859375 144.347656 206.554688 145.929688 C 207.25 147.511719 207.90625 149.109375 208.527344 150.71875 C 209.148438 152.332031 209.730469 153.960938 210.277344 155.597656 C 210.820312 157.238281 211.324219 158.890625 211.792969 160.554688 C 212.257812 162.21875 212.6875 163.890625 213.074219 165.574219 C 213.464844 167.257812 213.8125 168.949219 214.121094 170.648438 C 214.429688 172.347656 214.699219 174.054688 214.929688 175.765625 C 215.15625 177.480469 215.34375 179.195312 215.492188 180.917969 C 215.753906 184.609375 215.820312 188.300781 215.699219 192 C 215.574219 195.695312 215.261719 199.375 214.757812 203.042969 C 214.257812 206.707031 213.566406 210.335938 212.6875 213.929688 C 211.808594 217.523438 210.746094 221.058594 209.503906 224.542969 C 208.257812 228.027344 206.839844 231.4375 205.242188 234.773438 C 203.644531 238.109375 201.878906 241.355469 199.949219 244.511719 C 198.015625 247.664062 195.925781 250.710938 193.679688 253.648438 C 191.429688 256.585938 189.039062 259.402344 186.5 262.09375 Z M 186.5 262.09375 " fill-opacity="1" fill-rule="nonzero"/></g></svg>