<svg xmlns="http://www.w3.org/2000/svg" xmlns:xlink="http://www.w3.org/1999/xlink" width="500" zoomAndPan="magnify" viewBox="0 0 375 374.999991" height="500" preserveAspectRatio="xMidYMid meet" version="1.0"><defs><g/><clipPath id="c912e89be1"><path d="M 76.558594 12.042969 L 363 12.042969 L 363 363.515625 L 76.558594 363.515625 Z M 76.558594 12.042969 " clip-rule="nonzero"/></clipPath></defs><g clip-path="url(#c912e89be1)"><path fill="#ffffff" d="M 76.546875 232.949219 L 166.671875 232.949219 L 166.671875 102.28125 L 245.835938 102.28125 C 253.058594 102.28125 259.851562 105.097656 264.953125 110.210938 C 270.058594 115.324219 272.863281 122.117188 272.855469 129.339844 L 272.671875 247.367188 C 272.648438 261.730469 260.949219 273.417969 246.582031 273.417969 L 169.46875 273.417969 L 109.375 363.476562 L 246.582031 363.476562 C 310.53125 363.476562 362.636719 311.453125 362.730469 247.503906 L 362.910156 129.472656 C 362.957031 98.171875 350.804688 68.730469 328.683594 46.578125 C 306.558594 24.421875 277.140625 12.226562 245.835938 12.226562 L 76.546875 12.101562 Z M 76.546875 232.949219 " fill-opacity="1" fill-rule="nonzero"/></g><g fill="#64f4ac" fill-opacity="1"><g transform="translate(-94.837964, 336.28915)"><g><path d="M 101.03125 -37.296875 C 101.03125 -49.578125 104.726562 -59.414062 112.125 -66.8125 C 119.53125 -74.207031 129.367188 -77.90625 141.640625 -77.90625 C 153.921875 -77.90625 163.757812 -74.207031 171.15625 -66.8125 C 178.550781 -59.414062 182.25 -49.578125 182.25 -37.296875 C 182.25 -24.703125 178.550781 -14.550781 171.15625 -6.84375 C 163.757812 0.863281 153.921875 4.71875 141.640625 4.71875 C 129.367188 4.71875 119.53125 0.863281 112.125 -6.84375 C 104.726562 -14.550781 101.03125 -24.703125 101.03125 -37.296875 Z M 101.03125 -37.296875 "/></g></g></g></svg>