<svg xmlns="http://www.w3.org/2000/svg" xmlns:xlink="http://www.w3.org/1999/xlink" width="500" zoomAndPan="magnify" viewBox="0 0 375 374.999991" height="500" preserveAspectRatio="xMidYMid meet" version="1.0"><defs><filter x="0%" y="0%" width="100%" height="100%" id="87b6acc670"><feColorMatrix values="0 0 0 0 1 0 0 0 0 1 0 0 0 0 1 0 0 0 1 0" color-interpolation-filters="sRGB"/></filter><mask id="b477ff4af2"><g filter="url(#87b6acc670)"><rect x="-37.5" width="450" fill="#000000" y="-37.499999" height="449.999989" fill-opacity="0.48"/></g></mask><clipPath id="45c25fdca7"><path d="M 0.976562 0.816406 L 258.226562 0.816406 L 258.226562 351.816406 L 0.976562 351.816406 Z M 0.976562 0.816406 " clip-rule="nonzero"/></clipPath><clipPath id="88425af4be"><rect x="0" width="259" y="0" height="353"/></clipPath><clipPath id="239527168c"><path d="M 52.839844 12.816406 L 310.089844 12.816406 L 310.089844 363.816406 L 52.839844 363.816406 Z M 52.839844 12.816406 " clip-rule="nonzero"/></clipPath></defs><g mask="url(#b477ff4af2)"><g transform="matrix(1, 0, 0, 1, 79, 12)"><g clip-path="url(#88425af4be)"><path fill="#25262a" d="M 201.011719 241.171875 C 201.011719 272.394531 175.609375 297.867188 144.390625 297.867188 L 143.851562 297.867188 L 143.851562 184.480469 L 144.390625 184.480469 C 175.617188 184.480469 201.011719 209.953125 201.011719 241.171875 Z M 201.011719 241.171875 " fill-opacity="1" fill-rule="nonzero"/><g clip-path="url(#45c25fdca7)"><path fill="#1ed891" d="M 221.691406 93.667969 C 221.691406 93.660156 221.691406 93.65625 221.691406 93.648438 C 221.691406 93.640625 221.691406 93.640625 221.691406 93.632812 Z M 258.523438 241.109375 L 258.523438 241.136719 C 258.523438 302.050781 209.269531 351.699219 148.355469 351.699219 L 0.976562 351.699219 L 0.976562 0.859375 L 128.648438 0.859375 C 180.011719 0.859375 221.667969 42.375 221.675781 93.734375 C 221.675781 113.378906 215.515625 131.507812 205.113281 146.523438 C 237.164062 165.824219 258.523438 200.976562 258.523438 241.109375 Z M 228.675781 241.085938 C 228.675781 229.714844 226.441406 218.675781 222.050781 208.277344 C 217.800781 198.238281 211.726562 189.230469 203.992188 181.496094 C 196.253906 173.757812 187.246094 167.691406 177.210938 163.441406 C 166.808594 159.042969 155.769531 156.824219 144.398438 156.824219 L 116.203125 156.824219 L 116.203125 325.699219 L 144.398438 325.699219 C 155.769531 325.699219 166.808594 323.296875 177.210938 318.902344 C 187.246094 314.65625 196.261719 308.414062 203.992188 300.675781 C 211.726562 292.941406 217.800781 283.933594 222.050781 273.894531 C 226.441406 263.496094 228.675781 252.457031 228.675781 241.085938 Z M 228.675781 241.085938 " fill-opacity="1" fill-rule="nonzero"/></g></g></g></g><path fill="#25262a" d="M 252.875 253.171875 C 252.875 284.394531 227.476562 309.867188 196.257812 309.867188 L 195.714844 309.867188 L 195.714844 196.480469 L 196.257812 196.480469 C 227.484375 196.480469 252.875 221.953125 252.875 253.171875 Z M 252.875 253.171875 " fill-opacity="1" fill-rule="nonzero"/><g clip-path="url(#239527168c)"><path fill="#1ed891" d="M 273.554688 105.667969 C 273.554688 105.660156 273.554688 105.65625 273.554688 105.648438 C 273.554688 105.640625 273.554688 105.640625 273.554688 105.632812 Z M 310.386719 253.109375 L 310.386719 253.136719 C 310.386719 314.050781 261.132812 363.699219 200.21875 363.699219 L 52.839844 363.699219 L 52.839844 12.859375 L 180.511719 12.859375 C 231.875 12.859375 273.535156 54.375 273.542969 105.734375 C 273.542969 125.378906 267.378906 143.507812 256.980469 158.523438 C 289.03125 177.824219 310.386719 212.976562 310.386719 253.109375 Z M 280.542969 253.085938 C 280.542969 241.714844 278.308594 230.675781 273.914062 220.277344 C 269.664062 210.238281 263.59375 201.230469 255.855469 193.496094 C 248.117188 185.757812 239.109375 179.691406 229.074219 175.441406 C 218.671875 171.042969 207.636719 168.824219 196.261719 168.824219 L 168.066406 168.824219 L 168.066406 337.699219 L 196.261719 337.699219 C 207.636719 337.699219 218.671875 335.296875 229.074219 330.902344 C 239.109375 326.65625 248.125 320.414062 255.855469 312.675781 C 263.59375 304.941406 269.664062 295.933594 273.914062 285.894531 C 278.308594 275.496094 280.542969 264.457031 280.542969 253.085938 Z M 280.542969 253.085938 " fill-opacity="1" fill-rule="nonzero"/></g></svg>