<svg xmlns="http://www.w3.org/2000/svg" xmlns:xlink="http://www.w3.org/1999/xlink" width="500" zoomAndPan="magnify" viewBox="0 0 375 374.999991" height="500" preserveAspectRatio="xMidYMid meet" version="1.0"><defs><filter x="0%" y="0%" width="100%" height="100%" id="75ab5058ca"><feColorMatrix values="0 0 0 0 1 0 0 0 0 1 0 0 0 0 1 0 0 0 1 0" color-interpolation-filters="sRGB"/></filter><mask id="9ae4c9c6be"><g filter="url(#75ab5058ca)"><rect x="-37.5" width="450" fill="#000000" y="-37.499999" height="449.999989" fill-opacity="0.69"/></g></mask><clipPath id="8b0625c036"><path d="M 0.359375 0.871094 L 150.359375 0.871094 L 150.359375 150.871094 L 0.359375 150.871094 Z M 0.359375 0.871094 " clip-rule="nonzero"/></clipPath><clipPath id="60427a74ea"><rect x="0" width="151" y="0" height="152"/></clipPath><mask id="5131870776"><g filter="url(#75ab5058ca)"><rect x="-37.5" width="450" fill="#000000" y="-37.499999" height="449.999989" fill-opacity="0.6"/></g></mask><clipPath id="3f0fdbc882"><path d="M 1 1 L 147.164062 1 L 147.164062 147.851562 L 1 147.851562 Z M 1 1 " clip-rule="nonzero"/></clipPath><clipPath id="893d353e1b"><path d="M 147.164062 20.539062 L 147.164062 128.546875 C 147.164062 139.195312 138.527344 147.832031 127.878906 147.832031 L 20.394531 147.832031 C 3.234375 147.832031 -5.382812 127.101562 6.722656 114.9375 L 114.207031 6.929688 C 126.34375 -5.265625 147.164062 3.328125 147.164062 20.539062 Z M 147.164062 20.539062 " clip-rule="nonzero"/></clipPath><linearGradient x1="103.210447" gradientTransform="matrix(-0.437245, 0, 0, 0.437245, 147.164665, 0.0435512)" y1="-19.147126" x2="182.446508" gradientUnits="userSpaceOnUse" y2="369.16949" id="7e8a6e7127"><stop stop-opacity="1" stop-color="rgb(2.69928%, 67.498779%, 30.999756%)" offset="0"/><stop stop-opacity="1" stop-color="rgb(2.69928%, 67.498779%, 30.999756%)" offset="0.125"/><stop stop-opacity="1" stop-color="rgb(2.705383%, 67.408752%, 30.995178%)" offset="0.15625"/><stop stop-opacity="1" stop-color="rgb(2.728271%, 67.124939%, 30.984497%)" offset="0.169098"/><stop stop-opacity="1" stop-color="rgb(2.745056%, 66.929626%, 30.976868%)" offset="0.1875"/><stop stop-opacity="1" stop-color="rgb(2.760315%, 66.734314%, 30.967712%)" offset="0.21875"/><stop stop-opacity="1" stop-color="rgb(2.792358%, 66.343689%, 30.952454%)" offset="0.25"/><stop stop-opacity="1" stop-color="rgb(2.822876%, 65.95459%, 30.937195%)" offset="0.28125"/><stop stop-opacity="1" stop-color="rgb(2.854919%, 65.563965%, 30.92041%)" offset="0.3125"/><stop stop-opacity="1" stop-color="rgb(2.886963%, 65.17334%, 30.905151%)" offset="0.34375"/><stop stop-opacity="1" stop-color="rgb(2.91748%, 64.784241%, 30.889893%)" offset="0.375"/><stop stop-opacity="1" stop-color="rgb(2.949524%, 64.393616%, 30.873108%)" offset="0.40625"/><stop stop-opacity="1" stop-color="rgb(2.981567%, 64.002991%, 30.857849%)" offset="0.4375"/><stop stop-opacity="1" stop-color="rgb(3.012085%, 63.613892%, 30.84259%)" offset="0.46875"/><stop stop-opacity="1" stop-color="rgb(3.044128%, 63.223267%, 30.825806%)" offset="0.5"/><stop stop-opacity="1" stop-color="rgb(3.076172%, 62.832642%, 30.810547%)" offset="0.53125"/><stop stop-opacity="1" stop-color="rgb(3.106689%, 62.443542%, 30.795288%)" offset="0.5625"/><stop stop-opacity="1" stop-color="rgb(3.138733%, 62.052917%, 30.778503%)" offset="0.59375"/><stop stop-opacity="1" stop-color="rgb(3.170776%, 61.662292%, 30.763245%)" offset="0.625"/><stop stop-opacity="1" stop-color="rgb(3.201294%, 61.273193%, 30.747986%)" offset="0.65625"/><stop stop-opacity="1" stop-color="rgb(3.233337%, 60.882568%, 30.731201%)" offset="0.6875"/><stop stop-opacity="1" stop-color="rgb(3.265381%, 60.491943%, 30.715942%)" offset="0.71875"/><stop stop-opacity="1" stop-color="rgb(3.295898%, 60.102844%, 30.700684%)" offset="0.75"/><stop stop-opacity="1" stop-color="rgb(3.327942%, 59.712219%, 30.683899%)" offset="0.78125"/><stop stop-opacity="1" stop-color="rgb(3.359985%, 59.321594%, 30.66864%)" offset="0.8125"/><stop stop-opacity="1" stop-color="rgb(3.390503%, 58.932495%, 30.653381%)" offset="0.830902"/><stop stop-opacity="1" stop-color="rgb(3.407288%, 58.737183%, 30.645752%)" offset="0.84375"/><stop stop-opacity="1" stop-color="rgb(3.422546%, 58.54187%, 30.636597%)" offset="0.875"/><stop stop-opacity="1" stop-color="rgb(3.45459%, 58.151245%, 30.621338%)" offset="0.90625"/><stop stop-opacity="1" stop-color="rgb(3.483582%, 57.777405%, 30.606079%)" offset="0.9375"/><stop stop-opacity="1" stop-color="rgb(3.49884%, 57.598877%, 30.599976%)" offset="1"/></linearGradient><clipPath id="203635d87d"><rect x="0" width="148" y="0" height="148"/></clipPath><clipPath id="d9bddc1372"><path d="M 157.582031 147.097656 L 217.582031 147.097656 L 217.582031 228.847656 L 157.582031 228.847656 Z M 157.582031 147.097656 " clip-rule="nonzero"/></clipPath></defs><g mask="url(#9ae4c9c6be)"><g transform="matrix(1, 0, 0, 1, 111, 112)"><g clip-path="url(#60427a74ea)"><g clip-path="url(#8b0625c036)"><path fill="#07ac4f" d="M 37.507812 0.871094 L 113.214844 0.871094 C 114.429688 0.871094 115.644531 0.929688 116.855469 1.050781 C 118.066406 1.171875 119.265625 1.347656 120.460938 1.585938 C 121.652344 1.824219 122.832031 2.117188 123.996094 2.472656 C 125.160156 2.824219 126.304688 3.234375 127.429688 3.699219 C 128.554688 4.164062 129.652344 4.683594 130.722656 5.257812 C 131.796875 5.832031 132.839844 6.457031 133.851562 7.132812 C 134.863281 7.808594 135.839844 8.53125 136.78125 9.304688 C 137.71875 10.074219 138.621094 10.890625 139.480469 11.75 C 140.339844 12.613281 141.15625 13.511719 141.929688 14.453125 C 142.699219 15.394531 143.425781 16.371094 144.101562 17.382812 C 144.777344 18.390625 145.402344 19.433594 145.972656 20.507812 C 146.546875 21.582031 147.066406 22.679688 147.53125 23.804688 C 148 24.925781 148.40625 26.070312 148.761719 27.234375 C 149.113281 28.398438 149.410156 29.578125 149.648438 30.773438 C 149.882812 31.964844 150.0625 33.167969 150.179688 34.378906 C 150.300781 35.589844 150.359375 36.800781 150.359375 38.019531 L 150.359375 113.726562 C 150.359375 114.941406 150.300781 116.15625 150.179688 117.367188 C 150.0625 118.578125 149.882812 119.777344 149.648438 120.972656 C 149.410156 122.164062 149.113281 123.34375 148.761719 124.507812 C 148.40625 125.671875 148 126.816406 147.53125 127.941406 C 147.066406 129.066406 146.546875 130.164062 145.972656 131.234375 C 145.402344 132.308594 144.777344 133.351562 144.101562 134.363281 C 143.425781 135.375 142.699219 136.351562 141.929688 137.289062 C 141.15625 138.230469 140.339844 139.132812 139.480469 139.992188 C 138.621094 140.851562 137.71875 141.667969 136.78125 142.441406 C 135.839844 143.210938 134.863281 143.9375 133.851562 144.613281 C 132.839844 145.289062 131.796875 145.914062 130.722656 146.484375 C 129.652344 147.058594 128.554688 147.578125 127.429688 148.042969 C 126.304688 148.511719 125.160156 148.917969 123.996094 149.273438 C 122.832031 149.625 121.652344 149.921875 120.460938 150.15625 C 119.265625 150.394531 118.066406 150.574219 116.855469 150.691406 C 115.644531 150.8125 114.429688 150.871094 113.214844 150.871094 L 37.507812 150.871094 C 36.289062 150.871094 35.078125 150.8125 33.867188 150.691406 C 32.65625 150.574219 31.453125 150.394531 30.261719 150.15625 C 29.066406 149.921875 27.886719 149.625 26.722656 149.273438 C 25.558594 148.917969 24.414062 148.511719 23.292969 148.042969 C 22.167969 147.578125 21.070312 147.058594 19.996094 146.484375 C 18.921875 145.914062 17.882812 145.289062 16.871094 144.613281 C 15.859375 143.9375 14.882812 143.210938 13.941406 142.441406 C 13 141.667969 12.101562 140.851562 11.242188 139.992188 C 10.378906 139.132812 9.5625 138.230469 8.792969 137.289062 C 8.019531 136.351562 7.296875 135.375 6.621094 134.363281 C 5.945312 133.351562 5.320312 132.308594 4.746094 131.234375 C 4.171875 130.164062 3.652344 129.066406 3.1875 127.941406 C 2.722656 126.816406 2.3125 125.671875 1.960938 124.507812 C 1.605469 123.34375 1.3125 122.164062 1.074219 120.972656 C 0.835938 119.777344 0.660156 118.578125 0.539062 117.367188 C 0.421875 116.15625 0.359375 114.941406 0.359375 113.726562 L 0.359375 38.019531 C 0.359375 36.800781 0.421875 35.589844 0.539062 34.378906 C 0.660156 33.167969 0.835938 31.964844 1.074219 30.773438 C 1.3125 29.578125 1.605469 28.398438 1.960938 27.234375 C 2.3125 26.070312 2.722656 24.925781 3.1875 23.804688 C 3.652344 22.679688 4.171875 21.582031 4.746094 20.507812 C 5.320312 19.433594 5.945312 18.390625 6.621094 17.382812 C 7.296875 16.371094 8.019531 15.394531 8.792969 14.453125 C 9.5625 13.511719 10.378906 12.613281 11.242188 11.75 C 12.101562 10.890625 13 10.074219 13.941406 9.304688 C 14.882812 8.53125 15.859375 7.808594 16.871094 7.132812 C 17.882812 6.457031 18.921875 5.832031 19.996094 5.257812 C 21.070312 4.683594 22.167969 4.164062 23.292969 3.699219 C 24.414062 3.234375 25.558594 2.824219 26.722656 2.472656 C 27.886719 2.117188 29.066406 1.824219 30.261719 1.585938 C 31.453125 1.347656 32.65625 1.171875 33.867188 1.050781 C 35.078125 0.929688 36.289062 0.871094 37.507812 0.871094 Z M 37.507812 0.871094 " fill-opacity="1" fill-rule="nonzero"/></g></g></g></g><g mask="url(#5131870776)"><g transform="matrix(1, 0, 0, 1, 129, 128)"><g clip-path="url(#203635d87d)"><g clip-path="url(#3f0fdbc882)"><g clip-path="url(#893d353e1b)"><path fill="url(#7e8a6e7127)" d="M 147.164062 0.878906 L 147.164062 147.832031 L 0.601562 147.832031 L 0.601562 0.878906 Z M 147.164062 0.878906 " fill-rule="nonzero"/></g></g></g></g></g><path fill="#ffffff" d="M 204.054688 202.941406 C 204.054688 210.191406 198.152344 216.109375 190.898438 216.109375 L 190.773438 216.109375 L 190.773438 189.769531 L 190.898438 189.769531 C 198.15625 189.769531 204.054688 195.6875 204.054688 202.941406 Z M 204.054688 202.941406 " fill-opacity="1" fill-rule="nonzero"/><g clip-path="url(#d9bddc1372)"><path fill="#ffffff" d="M 208.859375 168.671875 C 208.859375 168.671875 208.859375 168.671875 208.859375 168.667969 C 208.859375 168.667969 208.859375 168.667969 208.859375 168.664062 Z M 217.414062 202.925781 L 217.414062 202.933594 C 217.414062 217.082031 205.972656 228.617188 191.820312 228.617188 L 157.582031 228.617188 L 157.582031 147.113281 L 187.242188 147.113281 C 199.175781 147.113281 208.851562 156.757812 208.855469 168.6875 C 208.855469 173.253906 207.421875 177.464844 205.007812 180.953125 C 212.453125 185.4375 217.414062 193.601562 217.414062 202.925781 Z M 210.480469 202.917969 C 210.480469 200.277344 209.960938 197.714844 208.941406 195.296875 C 207.953125 192.964844 206.542969 190.875 204.746094 189.078125 C 202.949219 187.277344 200.855469 185.871094 198.523438 184.882812 C 196.109375 183.859375 193.542969 183.34375 190.902344 183.34375 L 184.351562 183.34375 L 184.351562 222.578125 L 190.902344 222.578125 C 193.542969 222.578125 196.109375 222.019531 198.523438 220.996094 C 200.855469 220.011719 202.949219 218.5625 204.746094 216.761719 C 206.542969 214.964844 207.953125 212.875 208.941406 210.542969 C 209.960938 208.125 210.480469 205.5625 210.480469 202.917969 Z M 210.480469 202.917969 " fill-opacity="1" fill-rule="nonzero"/></g></svg>